<svg xmlns="http://www.w3.org/2000/svg" xmlns:xlink="http://www.w3.org/1999/xlink" width="422" zoomAndPan="magnify" viewBox="0 0 316.5 316.499999" height="422" preserveAspectRatio="xMidYMid meet" version="1.0"><defs><g/></defs><path fill="#3d8bf2" d="M 243.582031 65.832031 L 184.332031 65.832031 L 184.332031 26.332031 C 184.332031 11.808594 172.523438 0 158 0 L 118.5 0 C 103.976562 0 92.167969 11.808594 92.167969 26.332031 L 92.167969 69.71875 C 54.140625 81.082031 26.332031 116.339844 26.332031 158 L 26.332031 316 L 289.667969 316 L 289.667969 111.917969 C 289.667969 86.503906 268.996094 65.832031 243.582031 65.832031 Z M 118.5 26.332031 L 158 26.332031 L 158 65.832031 L 118.5 65.832031 Z M 118.5 171.167969 L 118.5 223.832031 L 52.667969 223.832031 L 52.667969 171.167969 Z M 263.335938 289.667969 L 52.667969 289.667969 L 52.667969 250.167969 L 144.832031 250.167969 L 144.832031 144.832031 L 53.996094 144.832031 C 60.121094 114.828125 86.703125 92.167969 118.5 92.167969 L 197.5 92.167969 L 197.5 190.917969 C 197.5 216.328125 218.171875 237 243.582031 237 L 263.335938 237 Z M 263.335938 210.667969 L 243.582031 210.667969 C 232.695312 210.667969 223.832031 201.804688 223.832031 190.917969 L 223.832031 92.167969 L 243.582031 92.167969 C 254.472656 92.167969 263.335938 101.027344 263.335938 111.917969 Z M 263.335938 210.667969 " fill-opacity="1" fill-rule="nonzero"/><g fill="#000000" fill-opacity="1"><g transform="translate(134.812523, 277.492284)"><g/></g></g><g fill="#000000" fill-opacity="1"><g transform="translate(136.217799, 277.492284)"><g/></g></g><g fill="#000000" fill-opacity="1"><g transform="translate(137.623074, 277.492284)"><g/></g></g><g fill="#000000" fill-opacity="1"><g transform="translate(139.02835, 277.492284)"><g/></g></g><g fill="#000000" fill-opacity="1"><g transform="translate(140.433626, 277.492284)"><g/></g></g><g fill="#000000" fill-opacity="1"><g transform="translate(141.838901, 277.492284)"><g/></g></g><g fill="#000000" fill-opacity="1"><g transform="translate(143.244177, 277.492284)"><g/></g></g><g fill="#000000" fill-opacity="1"><g transform="translate(144.649453, 277.492284)"><g/></g></g><g fill="#000000" fill-opacity="1"><g transform="translate(146.054728, 277.492284)"><g/></g></g><g fill="#000000" fill-opacity="1"><g transform="translate(147.460004, 277.492284)"><g/></g></g><g fill="#000000" fill-opacity="1"><g transform="translate(148.86528, 277.492284)"><g/></g></g><g fill="#000000" fill-opacity="1"><g transform="translate(150.270555, 277.492284)"><g/></g></g><g fill="#000000" fill-opacity="1"><g transform="translate(151.675831, 277.492284)"><g/></g></g><g fill="#000000" fill-opacity="1"><g transform="translate(153.081107, 277.492284)"><g/></g></g><g fill="#000000" fill-opacity="1"><g transform="translate(154.486382, 277.492284)"><g/></g></g><g fill="#000000" fill-opacity="1"><g transform="translate(155.891658, 277.492284)"><g/></g></g><g fill="#000000" fill-opacity="1"><g transform="translate(157.296934, 277.492284)"><g/></g></g><g fill="#000000" fill-opacity="1"><g transform="translate(158.70221, 277.492284)"><g/></g></g><g fill="#000000" fill-opacity="1"><g transform="translate(160.107485, 277.492284)"><g/></g></g><g fill="#000000" fill-opacity="1"><g transform="translate(161.512761, 277.492284)"><g/></g></g><g fill="#000000" fill-opacity="1"><g transform="translate(162.918037, 277.492284)"><g/></g></g><g fill="#000000" fill-opacity="1"><g transform="translate(164.323312, 277.492284)"><g/></g></g><g fill="#000000" fill-opacity="1"><g transform="translate(165.728588, 277.492284)"><g/></g></g><g fill="#000000" fill-opacity="1"><g transform="translate(167.133864, 277.492284)"><g/></g></g><g fill="#000000" fill-opacity="1"><g transform="translate(168.539139, 277.492284)"><g/></g></g><g fill="#000000" fill-opacity="1"><g transform="translate(169.944415, 277.492284)"><g/></g></g><g fill="#000000" fill-opacity="1"><g transform="translate(171.349691, 277.492284)"><g/></g></g><g fill="#000000" fill-opacity="1"><g transform="translate(172.754966, 277.492284)"><g/></g></g><g fill="#000000" fill-opacity="1"><g transform="translate(174.160242, 277.492284)"><g/></g></g><g fill="#000000" fill-opacity="1"><g transform="translate(175.565518, 277.492284)"><g/></g></g><g fill="#000000" fill-opacity="1"><g transform="translate(176.970793, 277.492284)"><g/></g></g><g fill="#000000" fill-opacity="1"><g transform="translate(178.376069, 277.492284)"><g/></g></g><g fill="#000000" fill-opacity="1"><g transform="translate(179.781345, 277.492284)"><g/></g></g></svg>