<svg xmlns="http://www.w3.org/2000/svg" xmlns:xlink="http://www.w3.org/1999/xlink" width="500" zoomAndPan="magnify" viewBox="0 0 375 374.999991" height="500" preserveAspectRatio="xMidYMid meet" version="1.0"><path fill="#3470bf" d="M 280.140625 154.546875 C 270.921875 145.796875 265.625 133.4375 265.625 120.640625 L 265.625 31.25 L 281.25 31.25 C 289.890625 31.25 296.875 24.25 296.875 15.625 C 296.875 7 289.890625 0 281.25 0 L 93.75 0 C 85.109375 0 78.125 7 78.125 15.625 C 78.125 24.25 85.109375 31.25 93.75 31.25 L 109.375 31.25 L 109.375 120.640625 C 109.375 133.4375 104.078125 145.796875 94.859375 154.53125 C 59.4375 188.109375 0 252.96875 0 310.265625 C 0 323.734375 3.59375 336.015625 10.703125 346.734375 C 22.375 364.421875 42.875 375 65.515625 375 L 309.5 375 C 332.140625 375 352.640625 364.4375 364.296875 346.75 C 371.40625 336 375.015625 323.734375 375.015625 310.265625 C 375.015625 252.96875 315.578125 188.109375 280.15625 154.546875 Z M 338.21875 329.53125 C 332.4375 338.3125 321.4375 343.75 309.5 343.75 L 65.5 343.75 C 53.5625 343.75 42.5625 338.296875 36.765625 329.515625 C 33.046875 323.90625 31.234375 317.59375 31.234375 310.265625 C 31.234375 296.1875 36.5 280.859375 44.578125 265.625 L 265.609375 265.625 C 274.25 265.625 281.234375 258.625 281.234375 250 C 281.234375 241.375 274.25 234.375 265.609375 234.375 L 64.75 234.375 C 82.703125 210.359375 103.6875 189.21875 116.34375 177.21875 C 131.765625 162.59375 140.625 141.984375 140.625 120.640625 L 140.625 31.25 L 234.375 31.25 L 234.375 120.640625 C 234.375 141.984375 243.21875 162.609375 258.65625 177.234375 C 284.25 201.484375 343.75 262.984375 343.75 310.28125 C 343.75 317.609375 341.953125 323.921875 338.21875 329.546875 Z M 338.21875 329.53125 " fill-opacity="1" fill-rule="nonzero"/></svg>