<svg xmlns="http://www.w3.org/2000/svg" xmlns:xlink="http://www.w3.org/1999/xlink" width="422" zoomAndPan="magnify" viewBox="0 0 316.5 316.499999" height="422" preserveAspectRatio="xMidYMid meet" version="1.0"><defs><g/><clipPath id="9c9026a453"><path d="M 0 70 L 316 70 L 316 300.351562 L 0 300.351562 Z M 0 70 " clip-rule="nonzero"/></clipPath><clipPath id="bdbd73d622"><path d="M 127 15.800781 L 175 15.800781 L 175 61 L 127 61 Z M 127 15.800781 " clip-rule="nonzero"/></clipPath></defs><g clip-path="url(#9c9026a453)"><path fill="#3d8bf2" d="M 270.164062 232.703125 C 263.125 236.242188 258.234375 243.460938 258.234375 251.863281 L 258.234375 281.007812 L 244.585938 281.007812 L 244.585938 190.4375 C 244.585938 190.417969 244.574219 190.398438 244.574219 190.375 C 244.574219 190.351562 244.585938 190.328125 244.585938 190.304688 L 244.09375 172.765625 L 253.625 172.765625 C 262.742188 172.765625 270.164062 180.1875 270.164062 189.308594 Z M 231.253906 222.832031 L 210.054688 222.832031 L 210.054688 201.636719 L 231.253906 201.636719 Z M 231.253906 258.394531 L 210.054688 258.394531 L 210.054688 237.195312 L 231.253906 237.195312 Z M 194.496094 222.832031 L 173.296875 222.832031 L 173.296875 201.636719 L 194.496094 201.636719 Z M 194.496094 258.394531 L 173.296875 258.394531 L 173.296875 237.195312 L 194.496094 237.195312 Z M 157.742188 222.832031 L 136.542969 222.832031 L 136.542969 201.636719 L 157.742188 201.636719 Z M 157.742188 258.394531 L 136.542969 258.394531 L 136.542969 237.195312 L 157.742188 237.195312 Z M 123.222656 190.359375 C 123.222656 190.386719 123.210938 190.410156 123.210938 190.4375 L 123.210938 281.007812 L 108.824219 281.007812 L 108.824219 213.570312 C 108.824219 205.398438 104.1875 198.367188 97.464844 194.726562 L 97.464844 165.699219 C 97.464844 155.328125 105.90625 146.886719 116.273438 146.886719 L 124.769531 146.886719 L 123.210938 190.265625 C 123.207031 190.296875 123.222656 190.328125 123.222656 190.359375 Z M 306.265625 281.007812 L 301.25 281.007812 L 301.25 251.863281 C 301.25 243.457031 296.355469 236.238281 289.308594 232.703125 L 289.308594 189.308594 C 289.308594 169.628906 273.304688 153.621094 253.625 153.621094 L 243.558594 153.621094 L 241.359375 75.242188 C 241.289062 72.648438 239.167969 70.589844 236.574219 70.589844 L 218.578125 70.589844 C 215.992188 70.589844 213.867188 72.648438 213.792969 75.242188 L 210.699219 185.652344 L 178.898438 185.652344 L 176.820312 127.914062 L 114.5625 127.914062 C 94.4375 128.828125 78.320312 145.355469 78.320312 165.699219 L 78.320312 194.097656 C 70.957031 197.515625 65.808594 204.933594 65.808594 213.570312 L 65.808594 281.007812 L 52.375 281.007812 L 52.375 242.292969 C 52.375 233.882812 47.484375 226.664062 40.441406 223.128906 L 40.441406 112.507812 C 40.441406 102.136719 48.878906 93.691406 59.257812 93.691406 L 126.679688 93.691406 L 125.964844 113.554688 L 176.304688 113.554688 L 174.90625 74.714844 L 121.554688 74.714844 C 121.261719 74.714844 121.007812 74.582031 120.71875 74.550781 L 59.257812 74.550781 C 38.328125 74.550781 21.292969 91.574219 21.292969 112.507812 L 21.292969 223.128906 C 14.25 226.664062 9.355469 233.882812 9.355469 242.292969 L 9.355469 281.007812 L 9.214844 281.007812 C 3.925781 281.007812 -0.359375 285.292969 -0.359375 290.578125 C -0.359375 295.867188 3.925781 300.152344 9.214844 300.152344 L 306.265625 300.152344 C 311.558594 300.152344 315.839844 295.867188 315.839844 290.578125 C 315.839844 285.292969 311.558594 281.007812 306.265625 281.007812 " fill-opacity="1" fill-rule="nonzero"/></g><g clip-path="url(#bdbd73d622)"><path fill="#3d8bf2" d="M 174.390625 60.355469 L 172.949219 20.390625 C 172.855469 17.8125 170.742188 15.777344 168.164062 15.777344 L 134.097656 15.777344 C 131.519531 15.777344 129.40625 17.8125 129.3125 20.390625 L 127.875 60.355469 L 174.390625 60.355469 " fill-opacity="1" fill-rule="nonzero"/></g><g fill="#000000" fill-opacity="1"><g transform="translate(134.812523, 277.492284)"><g/></g></g><g fill="#000000" fill-opacity="1"><g transform="translate(136.217799, 277.492284)"><g/></g></g><g fill="#000000" fill-opacity="1"><g transform="translate(137.623074, 277.492284)"><g/></g></g><g fill="#000000" fill-opacity="1"><g transform="translate(139.02835, 277.492284)"><g/></g></g><g fill="#000000" fill-opacity="1"><g transform="translate(140.433626, 277.492284)"><g/></g></g><g fill="#000000" fill-opacity="1"><g transform="translate(141.838901, 277.492284)"><g/></g></g><g fill="#000000" fill-opacity="1"><g transform="translate(143.244177, 277.492284)"><g/></g></g><g fill="#000000" fill-opacity="1"><g transform="translate(144.649453, 277.492284)"><g/></g></g><g fill="#000000" fill-opacity="1"><g transform="translate(146.054728, 277.492284)"><g/></g></g><g fill="#000000" fill-opacity="1"><g transform="translate(147.460004, 277.492284)"><g/></g></g><g fill="#000000" fill-opacity="1"><g transform="translate(148.86528, 277.492284)"><g/></g></g><g fill="#000000" fill-opacity="1"><g transform="translate(150.270555, 277.492284)"><g/></g></g><g fill="#000000" fill-opacity="1"><g transform="translate(151.675831, 277.492284)"><g/></g></g><g fill="#000000" fill-opacity="1"><g transform="translate(153.081107, 277.492284)"><g/></g></g><g fill="#000000" fill-opacity="1"><g transform="translate(154.486382, 277.492284)"><g/></g></g><g fill="#000000" fill-opacity="1"><g transform="translate(155.891658, 277.492284)"><g/></g></g><g fill="#000000" fill-opacity="1"><g transform="translate(157.296934, 277.492284)"><g/></g></g><g fill="#000000" fill-opacity="1"><g transform="translate(158.70221, 277.492284)"><g/></g></g><g fill="#000000" fill-opacity="1"><g transform="translate(160.107485, 277.492284)"><g/></g></g><g fill="#000000" fill-opacity="1"><g transform="translate(161.512761, 277.492284)"><g/></g></g><g fill="#000000" fill-opacity="1"><g transform="translate(162.918037, 277.492284)"><g/></g></g><g fill="#000000" fill-opacity="1"><g transform="translate(164.323312, 277.492284)"><g/></g></g><g fill="#000000" fill-opacity="1"><g transform="translate(165.728588, 277.492284)"><g/></g></g><g fill="#000000" fill-opacity="1"><g transform="translate(167.133864, 277.492284)"><g/></g></g><g fill="#000000" fill-opacity="1"><g transform="translate(168.539139, 277.492284)"><g/></g></g><g fill="#000000" fill-opacity="1"><g transform="translate(169.944415, 277.492284)"><g/></g></g><g fill="#000000" fill-opacity="1"><g transform="translate(171.349691, 277.492284)"><g/></g></g><g fill="#000000" fill-opacity="1"><g transform="translate(172.754966, 277.492284)"><g/></g></g><g fill="#000000" fill-opacity="1"><g transform="translate(174.160242, 277.492284)"><g/></g></g><g fill="#000000" fill-opacity="1"><g transform="translate(175.565518, 277.492284)"><g/></g></g><g fill="#000000" fill-opacity="1"><g transform="translate(176.970793, 277.492284)"><g/></g></g><g fill="#000000" fill-opacity="1"><g transform="translate(178.376069, 277.492284)"><g/></g></g><g fill="#000000" fill-opacity="1"><g transform="translate(179.781345, 277.492284)"><g/></g></g></svg>