<svg xmlns="http://www.w3.org/2000/svg" xmlns:xlink="http://www.w3.org/1999/xlink" width="500" zoomAndPan="magnify" viewBox="0 0 375 374.999991" height="500" preserveAspectRatio="xMidYMid meet" version="1.0"><path fill="#3470bf" d="M 187.5 0 C 129.46875 0 31.25 11.515625 31.25 54.6875 C 31.25 54.953125 31.359375 55.203125 31.359375 55.46875 L 31.25 55.46875 L 31.25 320.3125 C 31.25 363.484375 129.46875 375 187.5 375 C 241.546875 375 343.75 363.40625 343.75 319.53125 L 343.75 54.6875 C 343.75 11.515625 245.53125 0 187.5 0 Z M 312.5 115.125 C 306.28125 124.265625 259.171875 140.625 187.5 140.625 C 115.828125 140.625 68.796875 124.734375 62.5 115.859375 L 62.5 89.609375 C 96.234375 104.53125 150.140625 109.359375 187.5 109.359375 C 224.859375 109.359375 278.765625 104.515625 312.5 89.59375 Z M 312.5 255.75 C 306.28125 264.890625 259.171875 281.25 187.5 281.25 C 115.828125 281.25 68.796875 265.359375 62.5 256.484375 L 62.5 152.109375 C 96.234375 167.03125 150.140625 171.859375 187.5 171.859375 C 222.625 171.859375 277.96875 166.890625 312.5 151.40625 Z M 187.5 31.25 C 261.65625 31.25 303.0625 46.65625 311.515625 54.6875 C 303.046875 62.71875 261.65625 78.125 187.5 78.125 C 113.34375 78.125 71.9375 62.71875 63.484375 54.6875 C 71.9375 46.65625 113.34375 31.25 187.5 31.25 Z M 187.5 343.75 C 116.21875 343.75 69.15625 328.015625 62.5 319.109375 L 62.5 292.75 C 96.234375 307.671875 150.140625 312.5 187.5 312.5 C 222.625 312.5 277.96875 307.53125 312.5 292.046875 L 312.5 318.375 C 305.90625 327.53125 258.8125 343.75 187.5 343.75 Z M 187.5 343.75 " fill-opacity="1" fill-rule="nonzero"/></svg>