<svg xmlns="http://www.w3.org/2000/svg" xmlns:xlink="http://www.w3.org/1999/xlink" width="500" zoomAndPan="magnify" viewBox="0 0 375 374.999991" height="500" preserveAspectRatio="xMidYMid meet" version="1.0"><path fill="#3470bf" d="M 156.25 0 L 31.25 0 C 22.625 0 15.625 6.984375 15.625 15.625 C 15.625 24.265625 22.625 31.25 31.25 31.25 L 31.25 312.5 C 31.25 346.96875 59.28125 375 93.75 375 C 128.21875 375 156.25 346.96875 156.25 312.5 L 156.25 31.25 C 164.875 31.25 171.875 24.265625 171.875 15.625 C 171.875 6.984375 164.875 0 156.25 0 Z M 93.75 343.75 C 76.515625 343.75 62.5 329.734375 62.5 312.5 L 62.5 171.875 L 125 171.875 L 125 312.5 C 125 329.734375 110.984375 343.75 93.75 343.75 Z M 125 140.625 L 62.5 140.625 L 62.5 31.25 L 125 31.25 Z M 343.75 0 L 218.75 0 C 210.125 0 203.125 6.984375 203.125 15.625 C 203.125 24.265625 210.125 31.25 218.75 31.25 L 218.75 312.5 C 218.75 346.96875 246.78125 375 281.25 375 C 315.71875 375 343.75 346.96875 343.75 312.5 L 343.75 31.25 C 352.375 31.25 359.375 24.265625 359.375 15.625 C 359.375 6.984375 352.375 0 343.75 0 Z M 281.25 343.75 C 264.015625 343.75 250 329.734375 250 312.5 L 250 171.875 L 312.5 171.875 L 312.5 312.5 C 312.5 329.734375 298.484375 343.75 281.25 343.75 Z M 312.5 140.625 L 250 140.625 L 250 31.25 L 312.5 31.25 Z M 312.5 140.625 " fill-opacity="1" fill-rule="nonzero"/></svg>