<svg xmlns="http://www.w3.org/2000/svg" xmlns:xlink="http://www.w3.org/1999/xlink" width="500" zoomAndPan="magnify" viewBox="0 0 375 374.999991" height="500" preserveAspectRatio="xMidYMid meet" version="1.0"><defs><clipPath id="4b06261d2b"><path d="M 112.5 112.5 L 262.5 112.5 L 262.5 262.5 L 112.5 262.5 Z M 112.5 112.5 " clip-rule="nonzero"/></clipPath></defs><g clip-path="url(#4b06261d2b)"><path fill="#f9520b" d="M 248.949219 184.03125 C 243.0625 175.199219 237.5 166.875 237.5 156.25 L 237.5 150 L 243.75 150 L 243.75 137.5 L 237.5 137.5 L 237.5 131.25 C 237.5 130.636719 237.46875 130.023438 237.410156 129.414062 C 237.347656 128.800781 237.257812 128.195312 237.140625 127.59375 C 237.019531 126.988281 236.871094 126.394531 236.691406 125.808594 C 236.515625 125.21875 236.308594 124.640625 236.074219 124.074219 C 235.835938 123.507812 235.574219 122.953125 235.285156 122.410156 C 234.996094 121.871094 234.679688 121.34375 234.339844 120.832031 C 234 120.324219 233.632812 119.828125 233.242188 119.355469 C 232.855469 118.878906 232.441406 118.425781 232.007812 117.992188 C 231.574219 117.558594 231.121094 117.144531 230.644531 116.757812 C 230.171875 116.367188 229.675781 116 229.167969 115.660156 C 228.65625 115.320312 228.128906 115.003906 227.589844 114.714844 C 227.046875 114.425781 226.492188 114.164062 225.925781 113.925781 C 225.359375 113.691406 224.78125 113.484375 224.191406 113.308594 C 223.605469 113.128906 223.011719 112.980469 222.40625 112.859375 C 221.804688 112.742188 221.199219 112.652344 220.585938 112.589844 C 219.976562 112.53125 219.363281 112.5 218.75 112.5 L 206.25 112.5 C 205.636719 112.5 205.023438 112.53125 204.414062 112.589844 C 203.800781 112.652344 203.195312 112.742188 202.59375 112.859375 C 201.988281 112.980469 201.394531 113.128906 200.808594 113.308594 C 200.21875 113.484375 199.640625 113.691406 199.074219 113.925781 C 198.507812 114.164062 197.953125 114.425781 197.410156 114.714844 C 196.871094 115.003906 196.34375 115.320312 195.832031 115.660156 C 195.324219 116 194.828125 116.367188 194.355469 116.757812 C 193.878906 117.144531 193.425781 117.558594 192.992188 117.992188 C 192.558594 118.425781 192.144531 118.878906 191.757812 119.355469 C 191.367188 119.828125 191 120.324219 190.660156 120.832031 C 190.320312 121.34375 190.003906 121.871094 189.714844 122.410156 C 189.425781 122.953125 189.164062 123.507812 188.925781 124.074219 C 188.691406 124.640625 188.484375 125.21875 188.308594 125.808594 C 188.128906 126.394531 187.980469 126.988281 187.859375 127.59375 C 187.742188 128.195312 187.652344 128.800781 187.589844 129.414062 C 187.53125 130.023438 187.5 130.636719 187.5 131.25 L 187.5 137.5 L 181.25 137.5 L 181.25 150 L 187.5 150 L 187.5 156.25 C 187.5 166.875 181.9375 175.199219 176.050781 184.03125 C 174.0625 186.492188 172.277344 189.085938 170.691406 191.820312 C 169.101562 194.554688 167.734375 197.394531 166.585938 200.339844 C 165.4375 203.285156 164.519531 206.300781 163.835938 209.386719 C 163.148438 212.472656 162.703125 215.59375 162.5 218.75 C 162.5 237.179688 175.363281 258.585938 175.90625 259.492188 L 177.730469 262.5 L 247.261719 262.5 L 249.085938 259.492188 C 249.636719 258.585938 262.5 237.179688 262.5 218.75 C 262.296875 215.59375 261.851562 212.472656 261.167969 209.386719 C 260.484375 206.300781 259.566406 203.285156 258.417969 200.339844 C 257.265625 197.394531 255.898438 194.554688 254.3125 191.820312 C 252.722656 189.085938 250.9375 186.488281 248.949219 184.03125 Z M 200 131.25 C 200 130.839844 200.039062 130.433594 200.121094 130.03125 C 200.199219 129.628906 200.320312 129.238281 200.476562 128.859375 C 200.632812 128.480469 200.824219 128.117188 201.054688 127.777344 C 201.28125 127.4375 201.539062 127.121094 201.832031 126.832031 C 202.121094 126.539062 202.4375 126.28125 202.777344 126.054688 C 203.117188 125.824219 203.480469 125.632812 203.859375 125.476562 C 204.238281 125.320312 204.628906 125.199219 205.03125 125.121094 C 205.433594 125.039062 205.839844 125 206.25 125 L 218.75 125 C 219.160156 125 219.566406 125.039062 219.96875 125.121094 C 220.371094 125.199219 220.761719 125.320312 221.140625 125.476562 C 221.519531 125.632812 221.882812 125.824219 222.222656 126.054688 C 222.5625 126.28125 222.878906 126.539062 223.167969 126.832031 C 223.460938 127.121094 223.71875 127.4375 223.945312 127.777344 C 224.175781 128.117188 224.367188 128.480469 224.523438 128.859375 C 224.679688 129.238281 224.800781 129.628906 224.878906 130.03125 C 224.960938 130.433594 225 130.839844 225 131.25 L 225 137.5 L 200 137.5 Z M 225 150 L 225 156.25 C 225.09375 160.671875 225.765625 165.003906 227.023438 169.246094 C 228.277344 173.488281 230.070312 177.488281 232.398438 181.25 L 192.601562 181.25 C 194.929688 177.488281 196.722656 173.488281 197.976562 169.246094 C 199.234375 165.003906 199.90625 160.671875 200 156.25 L 200 150 Z M 240.09375 250 L 184.90625 250 C 182.148438 245.210938 179.933594 240.179688 178.261719 234.910156 C 176.59375 229.640625 175.503906 224.253906 175 218.75 C 175.304688 214.195312 176.273438 209.785156 177.910156 205.523438 C 179.546875 201.261719 181.78125 197.335938 184.605469 193.75 L 240.398438 193.75 C 243.222656 197.335938 245.453125 201.261719 247.089844 205.523438 C 248.726562 209.785156 249.695312 214.195312 250 218.75 C 249.496094 224.253906 248.410156 229.640625 246.738281 234.910156 C 245.070312 240.179688 242.855469 245.210938 240.09375 250 Z M 225 231.25 C 225 231.660156 224.960938 232.066406 224.878906 232.46875 C 224.800781 232.871094 224.679688 233.261719 224.523438 233.640625 C 224.367188 234.019531 224.175781 234.382812 223.945312 234.722656 C 223.71875 235.0625 223.460938 235.378906 223.167969 235.667969 C 222.878906 235.960938 222.5625 236.21875 222.222656 236.445312 C 221.882812 236.675781 221.519531 236.867188 221.140625 237.023438 C 220.761719 237.179688 220.371094 237.300781 219.96875 237.378906 C 219.566406 237.460938 219.160156 237.5 218.75 237.5 C 218.339844 237.5 217.933594 237.460938 217.53125 237.378906 C 217.128906 237.300781 216.738281 237.179688 216.359375 237.023438 C 215.980469 236.867188 215.617188 236.675781 215.277344 236.445312 C 214.9375 236.21875 214.621094 235.960938 214.332031 235.667969 C 214.039062 235.378906 213.78125 235.0625 213.554688 234.722656 C 213.324219 234.382812 213.132812 234.019531 212.976562 233.640625 C 212.820312 233.261719 212.699219 232.871094 212.621094 232.46875 C 212.539062 232.066406 212.5 231.660156 212.5 231.25 C 212.5 230.839844 212.539062 230.433594 212.621094 230.03125 C 212.699219 229.628906 212.820312 229.238281 212.976562 228.859375 C 213.132812 228.480469 213.324219 228.117188 213.554688 227.777344 C 213.78125 227.4375 214.039062 227.121094 214.332031 226.832031 C 214.621094 226.539062 214.9375 226.28125 215.277344 226.054688 C 215.617188 225.824219 215.980469 225.632812 216.359375 225.476562 C 216.738281 225.320312 217.128906 225.199219 217.53125 225.121094 C 217.933594 225.039062 218.339844 225 218.75 225 C 219.160156 225 219.566406 225.039062 219.96875 225.121094 C 220.371094 225.199219 220.761719 225.320312 221.140625 225.476562 C 221.519531 225.632812 221.882812 225.824219 222.222656 226.054688 C 222.5625 226.28125 222.878906 226.539062 223.167969 226.832031 C 223.460938 227.121094 223.71875 227.4375 223.945312 227.777344 C 224.175781 228.117188 224.367188 228.480469 224.523438 228.859375 C 224.679688 229.238281 224.800781 229.628906 224.878906 230.03125 C 224.960938 230.433594 225 230.839844 225 231.25 Z M 212.5 212.5 C 212.5 212.910156 212.460938 213.316406 212.378906 213.71875 C 212.300781 214.121094 212.179688 214.511719 212.023438 214.890625 C 211.867188 215.269531 211.675781 215.632812 211.445312 215.972656 C 211.21875 216.3125 210.960938 216.628906 210.667969 216.917969 C 210.378906 217.210938 210.0625 217.46875 209.722656 217.695312 C 209.382812 217.925781 209.019531 218.117188 208.640625 218.273438 C 208.261719 218.429688 207.871094 218.550781 207.46875 218.628906 C 207.066406 218.710938 206.660156 218.75 206.25 218.75 C 205.839844 218.75 205.433594 218.710938 205.03125 218.628906 C 204.628906 218.550781 204.238281 218.429688 203.859375 218.273438 C 203.480469 218.117188 203.117188 217.925781 202.777344 217.695312 C 202.4375 217.46875 202.121094 217.210938 201.832031 216.917969 C 201.539062 216.628906 201.28125 216.3125 201.054688 215.972656 C 200.824219 215.632812 200.632812 215.269531 200.476562 214.890625 C 200.320312 214.511719 200.199219 214.121094 200.121094 213.71875 C 200.039062 213.316406 200 212.910156 200 212.5 C 200 212.089844 200.039062 211.683594 200.121094 211.28125 C 200.199219 210.878906 200.320312 210.488281 200.476562 210.109375 C 200.632812 209.730469 200.824219 209.367188 201.054688 209.027344 C 201.28125 208.6875 201.539062 208.371094 201.832031 208.082031 C 202.121094 207.789062 202.4375 207.53125 202.777344 207.304688 C 203.117188 207.074219 203.480469 206.882812 203.859375 206.726562 C 204.238281 206.570312 204.628906 206.449219 205.03125 206.371094 C 205.433594 206.289062 205.839844 206.25 206.25 206.25 C 206.660156 206.25 207.066406 206.289062 207.46875 206.371094 C 207.871094 206.449219 208.261719 206.570312 208.640625 206.726562 C 209.019531 206.882812 209.382812 207.074219 209.722656 207.304688 C 210.0625 207.53125 210.378906 207.789062 210.667969 208.082031 C 210.960938 208.371094 211.21875 208.6875 211.445312 209.027344 C 211.675781 209.367188 211.867188 209.730469 212.023438 210.109375 C 212.179688 210.488281 212.300781 210.878906 212.378906 211.28125 C 212.460938 211.683594 212.5 212.089844 212.5 212.5 Z M 237.5 212.5 C 237.5 212.910156 237.460938 213.316406 237.378906 213.71875 C 237.300781 214.121094 237.179688 214.511719 237.023438 214.890625 C 236.867188 215.269531 236.675781 215.632812 236.445312 215.972656 C 236.21875 216.3125 235.960938 216.628906 235.667969 216.917969 C 235.378906 217.210938 235.0625 217.46875 234.722656 217.695312 C 234.382812 217.925781 234.019531 218.117188 233.640625 218.273438 C 233.261719 218.429688 232.871094 218.550781 232.46875 218.628906 C 232.066406 218.710938 231.660156 218.75 231.25 218.75 C 230.839844 218.75 230.433594 218.710938 230.03125 218.628906 C 229.628906 218.550781 229.238281 218.429688 228.859375 218.273438 C 228.480469 218.117188 228.117188 217.925781 227.777344 217.695312 C 227.4375 217.46875 227.121094 217.210938 226.832031 216.917969 C 226.539062 216.628906 226.28125 216.3125 226.054688 215.972656 C 225.824219 215.632812 225.632812 215.269531 225.476562 214.890625 C 225.320312 214.511719 225.199219 214.121094 225.121094 213.71875 C 225.039062 213.316406 225 212.910156 225 212.5 C 225 212.089844 225.039062 211.683594 225.121094 211.28125 C 225.199219 210.878906 225.320312 210.488281 225.476562 210.109375 C 225.632812 209.730469 225.824219 209.367188 226.054688 209.027344 C 226.28125 208.6875 226.539062 208.371094 226.832031 208.082031 C 227.121094 207.789062 227.4375 207.53125 227.777344 207.304688 C 228.117188 207.074219 228.480469 206.882812 228.859375 206.726562 C 229.238281 206.570312 229.628906 206.449219 230.03125 206.371094 C 230.433594 206.289062 230.839844 206.25 231.25 206.25 C 231.660156 206.25 232.066406 206.289062 232.46875 206.371094 C 232.871094 206.449219 233.261719 206.570312 233.640625 206.726562 C 234.019531 206.882812 234.382812 207.074219 234.722656 207.304688 C 235.0625 207.53125 235.378906 207.789062 235.667969 208.082031 C 235.960938 208.371094 236.21875 208.6875 236.445312 209.027344 C 236.675781 209.367188 236.867188 209.730469 237.023438 210.109375 C 237.179688 210.488281 237.300781 210.878906 237.378906 211.28125 C 237.460938 211.683594 237.5 212.089844 237.5 212.5 Z M 157.261719 250 C 159.042969 254.269531 161.035156 258.433594 163.238281 262.5 L 127.730469 262.5 L 125.90625 259.492188 C 125.363281 258.585938 112.5 237.179688 112.5 218.75 C 112.703125 215.59375 113.148438 212.472656 113.835938 209.386719 C 114.519531 206.300781 115.4375 203.285156 116.585938 200.339844 C 117.734375 197.394531 119.101562 194.554688 120.691406 191.820312 C 122.277344 189.085938 124.0625 186.492188 126.050781 184.03125 C 131.9375 175.199219 137.5 166.875 137.5 156.25 L 137.5 150 L 131.25 150 L 131.25 137.5 L 137.5 137.5 L 137.5 131.25 C 137.5 130.636719 137.53125 130.023438 137.589844 129.414062 C 137.652344 128.800781 137.742188 128.195312 137.859375 127.59375 C 137.980469 126.988281 138.128906 126.394531 138.308594 125.808594 C 138.484375 125.21875 138.691406 124.640625 138.925781 124.074219 C 139.164062 123.507812 139.425781 122.953125 139.714844 122.410156 C 140.003906 121.871094 140.320312 121.34375 140.660156 120.832031 C 141 120.324219 141.367188 119.828125 141.757812 119.355469 C 142.144531 118.878906 142.558594 118.425781 142.992188 117.992188 C 143.425781 117.558594 143.878906 117.144531 144.355469 116.757812 C 144.828125 116.367188 145.324219 116 145.832031 115.660156 C 146.34375 115.320312 146.871094 115.003906 147.410156 114.714844 C 147.953125 114.425781 148.507812 114.164062 149.074219 113.925781 C 149.640625 113.691406 150.21875 113.484375 150.808594 113.308594 C 151.394531 113.128906 151.988281 112.980469 152.59375 112.859375 C 153.195312 112.742188 153.800781 112.652344 154.414062 112.589844 C 155.023438 112.53125 155.636719 112.5 156.25 112.5 L 168.75 112.5 C 170.628906 112.5 172.464844 112.773438 174.261719 113.328125 C 176.058594 113.882812 177.730469 114.691406 179.28125 115.75 C 177.558594 118.632812 176.339844 121.71875 175.625 125 L 156.25 125 C 155.839844 125 155.433594 125.039062 155.03125 125.121094 C 154.628906 125.199219 154.238281 125.320312 153.859375 125.476562 C 153.480469 125.632812 153.117188 125.824219 152.777344 126.054688 C 152.4375 126.28125 152.121094 126.539062 151.832031 126.832031 C 151.539062 127.121094 151.28125 127.4375 151.054688 127.777344 C 150.824219 128.117188 150.632812 128.480469 150.476562 128.859375 C 150.320312 129.238281 150.199219 129.628906 150.121094 130.03125 C 150.039062 130.433594 150 130.839844 150 131.25 L 150 137.5 L 168.75 137.5 L 168.75 150 L 150 150 L 150 156.25 C 149.902344 160.675781 149.226562 165.007812 147.964844 169.25 C 146.703125 173.492188 144.90625 177.492188 142.570312 181.25 L 162.90625 181.25 C 160.265625 185.253906 157.90625 189.421875 155.835938 193.75 L 134.585938 193.75 C 131.765625 197.339844 129.539062 201.261719 127.902344 205.523438 C 126.269531 209.785156 125.300781 214.195312 125 218.75 C 125.503906 224.253906 126.59375 229.640625 128.261719 234.910156 C 129.933594 240.179688 132.148438 245.210938 134.90625 250 Z M 157.261719 250 " fill-opacity="1" fill-rule="nonzero"/></g></svg>