<svg xmlns="http://www.w3.org/2000/svg" xmlns:xlink="http://www.w3.org/1999/xlink" width="500" zoomAndPan="magnify" viewBox="0 0 375 374.999991" height="500" preserveAspectRatio="xMidYMid meet" version="1.0"><defs><clipPath id="c3325b3edf"><path d="M 51 24.910156 L 323 24.910156 L 323 349.601562 L 51 349.601562 Z M 51 24.910156 " clip-rule="nonzero"/></clipPath></defs><g clip-path="url(#c3325b3edf)"><path fill="#f9520b" d="M 288.777344 107.546875 L 200.882812 92.898438 L 200.882812 51.980469 L 214.417969 51.980469 L 214.417969 24.910156 L 92.589844 24.910156 L 92.589844 51.980469 L 106.125 51.980469 L 106.125 95 L 78.335938 105.421875 C 62.566406 111.34375 51.980469 126.609375 51.980469 143.449219 L 51.980469 349.796875 L 322.710938 349.796875 L 322.710938 147.613281 C 322.710938 127.679688 308.441406 110.835938 288.777344 107.566406 Z M 255.027344 153.5 C 255.027344 142.3125 264.140625 133.203125 275.335938 133.203125 C 286.53125 133.203125 295.640625 142.3125 295.640625 153.5 L 295.640625 227.953125 C 295.640625 239.148438 286.53125 248.257812 275.335938 248.257812 C 264.140625 248.257812 255.027344 239.148438 255.027344 227.953125 Z M 79.058594 322.710938 L 79.058594 143.4375 C 79.058594 137.820312 82.585938 132.726562 87.839844 130.765625 L 133.203125 113.75 L 133.203125 51.980469 L 173.808594 51.980469 L 173.808594 115.847656 L 236.5625 126.308594 C 231.136719 134.011719 227.953125 143.390625 227.953125 153.519531 L 227.953125 227.972656 C 227.953125 254.097656 249.210938 275.347656 275.335938 275.347656 C 282.585938 275.347656 289.480469 273.691406 295.640625 270.773438 L 295.640625 322.722656 L 79.058594 322.722656 Z M 79.058594 322.710938 " fill-opacity="1" fill-rule="nonzero"/></g></svg>