<svg xmlns="http://www.w3.org/2000/svg" xmlns:xlink="http://www.w3.org/1999/xlink" width="500" zoomAndPan="magnify" viewBox="0 0 375 374.999991" height="500" preserveAspectRatio="xMidYMid meet" version="1.0"><path fill="#f9520b" d="M 184.574219 0 C 125.640625 0 25.894531 11.695312 25.894531 55.539062 C 25.894531 55.808594 26.003906 56.0625 26.003906 56.332031 L 25.894531 56.332031 L 25.894531 325.296875 C 25.894531 369.140625 125.640625 380.835938 184.574219 380.835938 C 239.464844 380.835938 343.257812 369.0625 343.257812 324.503906 L 343.257812 55.539062 C 343.257812 11.695312 243.507812 0 184.574219 0 Z M 311.519531 116.917969 C 305.203125 126.199219 257.363281 142.8125 184.574219 142.8125 C 111.789062 142.8125 64.023438 126.675781 57.628906 117.664062 L 57.628906 91.003906 C 91.890625 106.15625 146.632812 111.0625 184.574219 111.0625 C 222.515625 111.0625 277.261719 106.140625 311.519531 90.988281 Z M 311.519531 259.730469 C 305.203125 269.011719 257.363281 285.628906 184.574219 285.628906 C 111.789062 285.628906 64.023438 269.488281 57.628906 260.476562 L 57.628906 154.476562 C 91.890625 169.628906 146.632812 174.535156 184.574219 174.535156 C 220.246094 174.535156 276.453125 169.488281 311.519531 153.761719 Z M 184.574219 31.738281 C 259.886719 31.738281 301.9375 47.382812 310.519531 55.539062 C 301.921875 63.695312 259.886719 79.339844 184.574219 79.339844 C 109.265625 79.339844 67.214844 63.695312 58.628906 55.539062 C 67.214844 47.382812 109.265625 31.738281 184.574219 31.738281 Z M 184.574219 349.101562 C 112.183594 349.101562 64.390625 333.121094 57.628906 324.074219 L 57.628906 297.304688 C 91.890625 312.460938 146.632812 317.363281 184.574219 317.363281 C 220.246094 317.363281 276.453125 312.316406 311.519531 296.59375 L 311.519531 323.328125 C 304.824219 332.628906 256.996094 349.101562 184.574219 349.101562 Z M 184.574219 349.101562 " fill-opacity="1" fill-rule="nonzero"/></svg>