<svg xmlns="http://www.w3.org/2000/svg" xmlns:xlink="http://www.w3.org/1999/xlink" width="500" zoomAndPan="magnify" viewBox="0 0 375 374.999991" height="500" preserveAspectRatio="xMidYMid meet" version="1.0"><path fill="#f9520b" d="M 341.125 178.828125 C 326.40625 156.75 312.5 135.9375 312.5 109.375 L 312.5 93.75 L 328.125 93.75 L 328.125 62.5 L 312.5 62.5 L 312.5 46.875 C 312.5 45.339844 312.425781 43.808594 312.273438 42.28125 C 312.125 40.753906 311.898438 39.234375 311.597656 37.730469 C 311.300781 36.222656 310.925781 34.738281 310.480469 33.269531 C 310.035156 31.796875 309.519531 30.355469 308.933594 28.9375 C 308.34375 27.519531 307.6875 26.132812 306.964844 24.777344 C 306.242188 23.425781 305.453125 22.109375 304.601562 20.832031 C 303.746094 19.554688 302.832031 18.324219 301.859375 17.136719 C 300.886719 15.949219 299.855469 14.816406 298.769531 13.730469 C 297.683594 12.644531 296.550781 11.613281 295.363281 10.640625 C 294.175781 9.667969 292.945312 8.753906 291.667969 7.898438 C 290.390625 7.046875 289.074219 6.257812 287.722656 5.535156 C 286.367188 4.8125 284.980469 4.15625 283.5625 3.566406 C 282.144531 2.980469 280.703125 2.464844 279.230469 2.019531 C 277.761719 1.574219 276.277344 1.199219 274.769531 0.902344 C 273.265625 0.601562 271.746094 0.375 270.21875 0.226562 C 268.691406 0.0742188 267.160156 0 265.625 0 L 234.375 0 C 232.839844 0 231.308594 0.0742188 229.78125 0.226562 C 228.253906 0.375 226.734375 0.601562 225.230469 0.902344 C 223.722656 1.199219 222.238281 1.574219 220.769531 2.019531 C 219.296875 2.464844 217.855469 2.980469 216.4375 3.566406 C 215.019531 4.15625 213.632812 4.8125 212.277344 5.535156 C 210.925781 6.257812 209.609375 7.046875 208.332031 7.898438 C 207.054688 8.753906 205.824219 9.667969 204.636719 10.640625 C 203.449219 11.613281 202.316406 12.644531 201.230469 13.730469 C 200.144531 14.816406 199.113281 15.949219 198.140625 17.136719 C 197.167969 18.324219 196.253906 19.554688 195.398438 20.832031 C 194.546875 22.109375 193.757812 23.425781 193.035156 24.777344 C 192.3125 26.132812 191.65625 27.519531 191.066406 28.9375 C 190.480469 30.355469 189.964844 31.796875 189.519531 33.269531 C 189.074219 34.738281 188.699219 36.222656 188.402344 37.730469 C 188.101562 39.234375 187.875 40.753906 187.726562 42.28125 C 187.574219 43.808594 187.5 45.339844 187.5 46.875 L 187.5 62.5 L 171.875 62.5 L 171.875 93.75 L 187.5 93.75 L 187.5 109.375 C 187.5 135.9375 173.59375 156.75 158.875 178.828125 C 153.910156 184.976562 149.441406 191.46875 145.476562 198.304688 C 141.507812 205.140625 138.089844 212.238281 135.214844 219.601562 C 132.339844 226.964844 130.046875 234.503906 128.335938 242.21875 C 126.621094 249.9375 125.511719 257.738281 125 265.625 C 125 311.703125 157.15625 365.21875 158.515625 367.484375 L 163.078125 375 L 336.90625 375 L 341.46875 367.484375 C 342.84375 365.21875 375 311.703125 375 265.625 C 374.492188 257.738281 373.378906 249.9375 371.667969 242.21875 C 369.957031 234.503906 367.664062 226.964844 364.789062 219.601562 C 361.917969 212.238281 358.496094 205.136719 354.527344 198.300781 C 350.5625 191.46875 346.09375 184.976562 341.125 178.828125 Z M 218.75 46.875 C 218.75 45.847656 218.851562 44.832031 219.050781 43.828125 C 219.25 42.820312 219.546875 41.84375 219.9375 40.894531 C 220.332031 39.949219 220.8125 39.046875 221.382812 38.195312 C 221.953125 37.339844 222.601562 36.550781 223.328125 35.828125 C 224.050781 35.101562 224.839844 34.453125 225.695312 33.882812 C 226.546875 33.3125 227.449219 32.832031 228.394531 32.4375 C 229.34375 32.046875 230.320312 31.75 231.328125 31.550781 C 232.332031 31.351562 233.347656 31.25 234.375 31.25 L 265.625 31.25 C 266.652344 31.25 267.667969 31.351562 268.671875 31.550781 C 269.679688 31.75 270.65625 32.046875 271.605469 32.4375 C 272.550781 32.832031 273.453125 33.3125 274.304688 33.882812 C 275.160156 34.453125 275.949219 35.101562 276.671875 35.828125 C 277.398438 36.550781 278.046875 37.339844 278.617188 38.195312 C 279.1875 39.046875 279.667969 39.949219 280.0625 40.894531 C 280.453125 41.84375 280.75 42.820312 280.949219 43.828125 C 281.148438 44.832031 281.25 45.847656 281.25 46.875 L 281.25 62.5 L 218.75 62.5 Z M 281.25 93.75 L 281.25 109.375 C 281.363281 114.878906 281.84375 120.351562 282.691406 125.789062 C 283.539062 131.230469 284.742188 136.589844 286.304688 141.867188 C 287.867188 147.144531 289.773438 152.296875 292.023438 157.320312 C 294.277344 162.34375 296.851562 167.195312 299.75 171.875 L 200.25 171.875 C 203.148438 167.195312 205.722656 162.34375 207.976562 157.320312 C 210.226562 152.296875 212.132812 147.144531 213.695312 141.867188 C 215.257812 136.589844 216.460938 131.230469 217.308594 125.789062 C 218.15625 120.351562 218.636719 114.878906 218.75 109.375 L 218.75 93.75 Z M 318.984375 343.75 L 181.015625 343.75 C 174.117188 331.773438 168.582031 319.199219 164.40625 306.027344 C 160.230469 292.855469 157.511719 279.386719 156.25 265.625 C 156.625 259.960938 157.425781 254.359375 158.644531 248.816406 C 159.863281 243.273438 161.492188 237.855469 163.527344 232.558594 C 165.5625 227.261719 167.984375 222.144531 170.789062 217.210938 C 173.59375 212.277344 176.753906 207.582031 180.265625 203.125 L 319.75 203.125 C 323.257812 207.585938 326.414062 212.28125 329.21875 217.214844 C 332.023438 222.148438 334.441406 227.261719 336.476562 232.558594 C 338.507812 237.859375 340.136719 243.277344 341.355469 248.820312 C 342.574219 254.359375 343.371094 259.964844 343.75 265.625 C 342.492188 279.386719 339.773438 292.855469 335.597656 306.027344 C 331.421875 319.203125 325.882812 331.777344 318.984375 343.75 Z M 281.25 296.875 C 281.25 297.902344 281.148438 298.917969 280.949219 299.921875 C 280.75 300.929688 280.453125 301.90625 280.0625 302.855469 C 279.667969 303.800781 279.1875 304.703125 278.617188 305.554688 C 278.046875 306.410156 277.398438 307.199219 276.671875 307.921875 C 275.949219 308.648438 275.160156 309.296875 274.304688 309.867188 C 273.453125 310.4375 272.550781 310.917969 271.605469 311.3125 C 270.65625 311.703125 269.679688 312 268.671875 312.199219 C 267.667969 312.398438 266.652344 312.5 265.625 312.5 C 264.597656 312.5 263.582031 312.398438 262.578125 312.199219 C 261.570312 312 260.59375 311.703125 259.644531 311.3125 C 258.699219 310.917969 257.796875 310.4375 256.945312 309.867188 C 256.089844 309.296875 255.300781 308.648438 254.578125 307.921875 C 253.851562 307.199219 253.203125 306.410156 252.632812 305.554688 C 252.0625 304.703125 251.582031 303.800781 251.1875 302.855469 C 250.796875 301.90625 250.5 300.929688 250.300781 299.921875 C 250.101562 298.917969 250 297.902344 250 296.875 C 250 295.847656 250.101562 294.832031 250.300781 293.828125 C 250.5 292.820312 250.796875 291.84375 251.1875 290.894531 C 251.582031 289.949219 252.0625 289.046875 252.632812 288.195312 C 253.203125 287.339844 253.851562 286.550781 254.578125 285.828125 C 255.300781 285.101562 256.089844 284.453125 256.945312 283.882812 C 257.796875 283.3125 258.699219 282.832031 259.644531 282.4375 C 260.59375 282.046875 261.570312 281.75 262.578125 281.550781 C 263.582031 281.351562 264.597656 281.25 265.625 281.25 C 266.652344 281.25 267.667969 281.351562 268.671875 281.550781 C 269.679688 281.75 270.65625 282.046875 271.605469 282.4375 C 272.550781 282.832031 273.453125 283.3125 274.304688 283.882812 C 275.160156 284.453125 275.949219 285.101562 276.671875 285.828125 C 277.398438 286.550781 278.046875 287.339844 278.617188 288.195312 C 279.1875 289.046875 279.667969 289.949219 280.0625 290.894531 C 280.453125 291.84375 280.75 292.820312 280.949219 293.828125 C 281.148438 294.832031 281.25 295.847656 281.25 296.875 Z M 250 250 C 250 251.027344 249.898438 252.042969 249.699219 253.046875 C 249.5 254.054688 249.203125 255.03125 248.8125 255.980469 C 248.417969 256.925781 247.9375 257.828125 247.367188 258.679688 C 246.796875 259.535156 246.148438 260.324219 245.421875 261.046875 C 244.699219 261.773438 243.910156 262.421875 243.054688 262.992188 C 242.203125 263.5625 241.300781 264.042969 240.355469 264.4375 C 239.40625 264.828125 238.429688 265.125 237.421875 265.324219 C 236.417969 265.523438 235.402344 265.625 234.375 265.625 C 233.347656 265.625 232.332031 265.523438 231.328125 265.324219 C 230.320312 265.125 229.34375 264.828125 228.394531 264.4375 C 227.449219 264.042969 226.546875 263.5625 225.695312 262.992188 C 224.839844 262.421875 224.050781 261.773438 223.328125 261.046875 C 222.601562 260.324219 221.953125 259.535156 221.382812 258.679688 C 220.8125 257.828125 220.332031 256.925781 219.9375 255.980469 C 219.546875 255.03125 219.25 254.054688 219.050781 253.046875 C 218.851562 252.042969 218.75 251.027344 218.75 250 C 218.75 248.972656 218.851562 247.957031 219.050781 246.953125 C 219.25 245.945312 219.546875 244.96875 219.9375 244.019531 C 220.332031 243.074219 220.8125 242.171875 221.382812 241.320312 C 221.953125 240.464844 222.601562 239.675781 223.328125 238.953125 C 224.050781 238.226562 224.839844 237.578125 225.695312 237.007812 C 226.546875 236.4375 227.449219 235.957031 228.394531 235.5625 C 229.34375 235.171875 230.320312 234.875 231.328125 234.675781 C 232.332031 234.476562 233.347656 234.375 234.375 234.375 C 235.402344 234.375 236.417969 234.476562 237.421875 234.675781 C 238.429688 234.875 239.40625 235.171875 240.355469 235.5625 C 241.300781 235.957031 242.203125 236.4375 243.054688 237.007812 C 243.910156 237.578125 244.699219 238.226562 245.421875 238.953125 C 246.148438 239.675781 246.796875 240.464844 247.367188 241.320312 C 247.9375 242.171875 248.417969 243.074219 248.8125 244.019531 C 249.203125 244.96875 249.5 245.945312 249.699219 246.953125 C 249.898438 247.957031 250 248.972656 250 250 Z M 312.5 250 C 312.5 251.027344 312.398438 252.042969 312.199219 253.046875 C 312 254.054688 311.703125 255.03125 311.3125 255.980469 C 310.917969 256.925781 310.4375 257.828125 309.867188 258.679688 C 309.296875 259.535156 308.648438 260.324219 307.921875 261.046875 C 307.199219 261.773438 306.410156 262.421875 305.554688 262.992188 C 304.703125 263.5625 303.800781 264.042969 302.855469 264.4375 C 301.90625 264.828125 300.929688 265.125 299.921875 265.324219 C 298.917969 265.523438 297.902344 265.625 296.875 265.625 C 295.847656 265.625 294.832031 265.523438 293.828125 265.324219 C 292.820312 265.125 291.84375 264.828125 290.894531 264.4375 C 289.949219 264.042969 289.046875 263.5625 288.195312 262.992188 C 287.339844 262.421875 286.550781 261.773438 285.828125 261.046875 C 285.101562 260.324219 284.453125 259.535156 283.882812 258.679688 C 283.3125 257.828125 282.832031 256.925781 282.4375 255.980469 C 282.046875 255.03125 281.75 254.054688 281.550781 253.046875 C 281.351562 252.042969 281.25 251.027344 281.25 250 C 281.25 248.972656 281.351562 247.957031 281.550781 246.953125 C 281.75 245.945312 282.046875 244.96875 282.4375 244.019531 C 282.832031 243.074219 283.3125 242.171875 283.882812 241.320312 C 284.453125 240.464844 285.101562 239.675781 285.828125 238.953125 C 286.550781 238.226562 287.339844 237.578125 288.195312 237.007812 C 289.046875 236.4375 289.949219 235.957031 290.894531 235.5625 C 291.84375 235.171875 292.820312 234.875 293.828125 234.675781 C 294.832031 234.476562 295.847656 234.375 296.875 234.375 C 297.902344 234.375 298.917969 234.476562 299.921875 234.675781 C 300.929688 234.875 301.90625 235.171875 302.855469 235.5625 C 303.800781 235.957031 304.703125 236.4375 305.554688 237.007812 C 306.410156 237.578125 307.199219 238.226562 307.921875 238.953125 C 308.648438 239.675781 309.296875 240.464844 309.867188 241.320312 C 310.4375 242.171875 310.917969 243.074219 311.3125 244.019531 C 311.703125 244.96875 312 245.945312 312.199219 246.953125 C 312.398438 247.957031 312.5 248.972656 312.5 250 Z M 111.90625 343.75 C 116.355469 354.417969 121.335938 364.835938 126.84375 375 L 38.078125 375 L 33.515625 367.484375 C 32.15625 365.21875 0 311.703125 0 265.625 C 0.511719 257.738281 1.621094 249.9375 3.335938 242.21875 C 5.046875 234.503906 7.339844 226.964844 10.214844 219.601562 C 13.089844 212.238281 16.507812 205.140625 20.476562 198.304688 C 24.441406 191.46875 28.910156 184.976562 33.875 178.828125 C 48.59375 156.75 62.5 135.9375 62.5 109.375 L 62.5 93.75 L 46.875 93.75 L 46.875 62.5 L 62.5 62.5 L 62.5 46.875 C 62.5 45.339844 62.574219 43.808594 62.726562 42.28125 C 62.875 40.753906 63.101562 39.234375 63.402344 37.730469 C 63.699219 36.222656 64.074219 34.738281 64.519531 33.269531 C 64.964844 31.796875 65.480469 30.355469 66.066406 28.9375 C 66.65625 27.519531 67.3125 26.132812 68.035156 24.777344 C 68.757812 23.425781 69.546875 22.109375 70.398438 20.832031 C 71.253906 19.554688 72.167969 18.324219 73.140625 17.136719 C 74.113281 15.949219 75.144531 14.816406 76.230469 13.730469 C 77.316406 12.644531 78.449219 11.613281 79.636719 10.640625 C 80.824219 9.667969 82.054688 8.753906 83.332031 7.898438 C 84.609375 7.046875 85.925781 6.257812 87.277344 5.535156 C 88.632812 4.8125 90.019531 4.15625 91.4375 3.566406 C 92.855469 2.980469 94.296875 2.464844 95.769531 2.019531 C 97.238281 1.574219 98.722656 1.199219 100.230469 0.902344 C 101.734375 0.601562 103.253906 0.375 104.78125 0.226562 C 106.308594 0.0742188 107.839844 0 109.375 0 L 140.625 0 C 145.324219 -0.00390625 149.914062 0.6875 154.402344 2.070312 C 158.890625 3.457031 163.074219 5.472656 166.953125 8.125 C 162.648438 15.335938 159.601562 23.042969 157.8125 31.25 L 109.375 31.25 C 108.347656 31.25 107.332031 31.351562 106.328125 31.550781 C 105.320312 31.75 104.34375 32.046875 103.394531 32.4375 C 102.449219 32.832031 101.546875 33.3125 100.695312 33.882812 C 99.839844 34.453125 99.050781 35.101562 98.328125 35.828125 C 97.601562 36.550781 96.953125 37.339844 96.382812 38.195312 C 95.8125 39.046875 95.332031 39.949219 94.9375 40.894531 C 94.546875 41.84375 94.25 42.820312 94.050781 43.828125 C 93.851562 44.832031 93.75 45.847656 93.75 46.875 L 93.75 62.5 L 140.625 62.5 L 140.625 93.75 L 93.75 93.75 L 93.75 109.375 C 93.628906 114.878906 93.144531 120.355469 92.292969 125.792969 C 91.441406 131.234375 90.230469 136.59375 88.664062 141.875 C 87.09375 147.152344 85.179688 152.304688 82.921875 157.324219 C 80.664062 162.347656 78.078125 167.199219 75.171875 171.875 L 126.015625 171.875 C 119.410156 181.886719 113.519531 192.304688 108.34375 203.125 L 55.21875 203.125 C 51.710938 207.585938 48.558594 212.28125 45.757812 217.214844 C 42.957031 222.148438 40.539062 227.265625 38.507812 232.5625 C 36.476562 237.859375 34.851562 243.28125 33.636719 248.820312 C 32.417969 254.363281 31.625 259.964844 31.25 265.625 C 32.511719 279.386719 35.230469 292.855469 39.40625 306.027344 C 43.582031 319.199219 49.117188 331.773438 56.015625 343.75 Z M 111.90625 343.75 " fill-opacity="1" fill-rule="nonzero"/></svg>