<svg xmlns="http://www.w3.org/2000/svg" xmlns:xlink="http://www.w3.org/1999/xlink" width="500" zoomAndPan="magnify" viewBox="0 0 375 374.999991" height="500" preserveAspectRatio="xMidYMid meet" version="1.0"><path fill="#f9520b" d="M 312.292969 124.484375 C 312.117188 124.167969 311.917969 123.878906 311.6875 123.601562 C 311.457031 123.328125 311.203125 123.078125 310.921875 122.851562 C 310.640625 122.628906 310.34375 122.433594 310.027344 122.269531 C 309.707031 122.101562 309.378906 121.96875 309.03125 121.867188 C 308.691406 121.761719 308.34375 121.699219 307.980469 121.664062 C 307.628906 121.628906 307.273438 121.628906 306.914062 121.664062 C 306.558594 121.703125 306.207031 121.769531 305.863281 121.871094 C 305.523438 121.976562 305.191406 122.113281 304.878906 122.28125 C 304.558594 122.449219 304.261719 122.648438 303.980469 122.871094 C 303.707031 123.097656 303.453125 123.347656 303.222656 123.621094 C 302.992188 123.898438 302.792969 124.191406 302.617188 124.507812 C 302.449219 124.824219 302.308594 125.152344 302.199219 125.492188 C 302.09375 125.832031 302.015625 126.183594 301.976562 126.539062 C 301.9375 126.898438 301.933594 127.253906 301.960938 127.609375 C 301.988281 127.96875 302.050781 128.316406 302.152344 128.664062 C 302.246094 129.007812 302.378906 129.335938 302.542969 129.65625 C 353.324219 223.011719 281.972656 341.429688 175.511719 340.078125 C 173.167969 340.074219 170.816406 340.011719 168.472656 339.898438 C 166.128906 339.777344 163.789062 339.601562 161.449219 339.367188 C 159.113281 339.136719 156.78125 338.847656 154.457031 338.503906 C 152.136719 338.152344 149.824219 337.753906 147.523438 337.292969 C 145.21875 336.832031 142.925781 336.3125 140.648438 335.742188 C 138.371094 335.167969 136.105469 334.542969 133.863281 333.859375 C 131.617188 333.171875 129.386719 332.4375 127.175781 331.644531 C 124.960938 330.851562 122.773438 330.007812 120.605469 329.109375 C 118.4375 328.207031 116.292969 327.253906 114.167969 326.246094 C 112.046875 325.242188 109.949219 324.1875 107.878906 323.078125 C 105.808594 321.96875 103.761719 320.8125 101.753906 319.601562 C 99.738281 318.398438 97.753906 317.136719 95.800781 315.832031 C 93.847656 314.527344 91.925781 313.179688 90.042969 311.777344 C 88.15625 310.378906 86.308594 308.933594 84.492188 307.441406 C 82.675781 305.953125 80.898438 304.417969 79.15625 302.84375 C 77.417969 301.261719 75.71875 299.644531 74.058594 297.984375 C 72.398438 296.324219 70.777344 294.621094 69.203125 292.882812 C 67.621094 291.144531 66.085938 289.363281 64.597656 287.546875 C 63.105469 285.734375 61.664062 283.882812 60.261719 281.996094 C 58.867188 280.113281 57.511719 278.191406 56.207031 276.238281 C 54.902344 274.289062 53.648438 272.304688 52.4375 270.292969 C 51.226562 268.277344 50.074219 266.234375 48.960938 264.164062 C 47.855469 262.09375 46.796875 259.996094 45.792969 257.871094 C 44.789062 255.753906 43.835938 253.601562 42.9375 251.4375 C 42.039062 249.269531 41.1875 247.078125 40.398438 244.867188 C 39.601562 242.652344 38.867188 240.429688 38.183594 238.179688 C 37.496094 235.933594 36.871094 233.667969 36.296875 231.394531 C 35.726562 229.113281 35.210938 226.824219 34.753906 224.523438 C 34.292969 222.21875 33.886719 219.902344 33.542969 217.582031 C 33.191406 215.257812 32.902344 212.929688 32.671875 210.59375 C 32.4375 208.257812 32.261719 205.914062 32.148438 203.566406 C 32.027344 201.222656 31.96875 198.878906 31.96875 196.527344 C 30.636719 90.066406 149.015625 18.710938 242.386719 69.503906 C 242.707031 69.671875 243.039062 69.8125 243.386719 69.917969 C 243.730469 70.019531 244.085938 70.085938 244.449219 70.121094 C 244.808594 70.15625 245.171875 70.15625 245.53125 70.117188 C 245.890625 70.082031 246.246094 70.011719 246.59375 69.90625 C 246.9375 69.796875 247.273438 69.65625 247.59375 69.488281 C 247.914062 69.316406 248.207031 69.113281 248.488281 68.882812 C 248.765625 68.652344 249.023438 68.398438 249.253906 68.117188 C 249.480469 67.835938 249.683594 67.53125 249.851562 67.210938 C 250.023438 66.894531 250.15625 66.5625 250.261719 66.210938 C 250.367188 65.867188 250.4375 65.511719 250.46875 65.152344 C 250.503906 64.789062 250.503906 64.429688 250.46875 64.066406 C 250.425781 63.707031 250.355469 63.351562 250.253906 63.007812 C 250.148438 62.664062 250.007812 62.328125 249.832031 62.007812 C 249.664062 61.6875 249.460938 61.386719 249.230469 61.113281 C 248.996094 60.832031 248.742188 60.578125 248.460938 60.347656 C 248.183594 60.117188 247.882812 59.917969 247.5625 59.746094 C 244.976562 58.386719 242.355469 57.101562 239.699219 55.886719 C 237.042969 54.679688 234.351562 53.539062 231.632812 52.476562 C 228.90625 51.417969 226.164062 50.4375 223.382812 49.53125 C 220.605469 48.628906 217.808594 47.804688 214.980469 47.058594 C 212.15625 46.3125 209.316406 45.648438 206.453125 45.0625 C 203.59375 44.476562 200.71875 43.972656 197.828125 43.554688 C 194.9375 43.132812 192.039062 42.792969 189.128906 42.539062 C 186.21875 42.277344 183.300781 42.101562 180.382812 42.011719 C 177.46875 41.917969 174.546875 41.914062 171.628906 41.984375 C 168.707031 42.058594 165.792969 42.210938 162.882812 42.453125 C 159.96875 42.691406 157.066406 43.011719 154.171875 43.414062 C 151.28125 43.816406 148.402344 44.304688 145.539062 44.867188 C 142.671875 45.4375 139.828125 46.082031 136.996094 46.808594 C 134.167969 47.539062 131.363281 48.34375 128.582031 49.234375 C 125.796875 50.117188 123.042969 51.082031 120.3125 52.128906 C 117.585938 53.167969 114.886719 54.289062 112.222656 55.484375 C 109.5625 56.679688 106.933594 57.949219 104.335938 59.292969 C 101.746094 60.636719 99.191406 62.058594 96.683594 63.546875 C 94.167969 65.039062 91.703125 66.59375 89.277344 68.222656 C 86.851562 69.851562 84.476562 71.546875 82.148438 73.3125 C 79.824219 75.078125 77.546875 76.90625 75.324219 78.796875 C 73.097656 80.691406 70.925781 82.648438 68.8125 84.664062 C 66.703125 86.679688 64.648438 88.753906 62.652344 90.882812 C 60.65625 93.019531 58.722656 95.203125 56.847656 97.449219 C 54.976562 99.6875 53.171875 101.984375 51.425781 104.324219 C 49.6875 106.667969 48.011719 109.0625 46.40625 111.496094 C 44.796875 113.9375 43.261719 116.421875 41.796875 118.949219 C 40.332031 121.472656 38.9375 124.042969 37.617188 126.648438 C 36.296875 129.253906 35.050781 131.894531 33.882812 134.566406 C 32.710938 137.242188 31.617188 139.949219 30.601562 142.6875 C 29.582031 145.421875 28.648438 148.1875 27.78125 150.984375 C 26.921875 153.773438 26.140625 156.582031 25.441406 159.417969 C 24.742188 162.257812 24.121094 165.109375 23.582031 167.976562 C 23.042969 170.847656 22.582031 173.734375 22.207031 176.628906 C 21.832031 179.523438 21.539062 182.429688 21.328125 185.34375 C 21.117188 188.257812 20.988281 191.171875 20.941406 194.09375 C 20.898438 197.011719 20.933594 199.933594 21.050781 202.847656 C 21.171875 205.769531 21.371094 208.683594 21.65625 211.585938 C 21.941406 214.492188 22.308594 217.394531 22.757812 220.277344 C 23.207031 223.164062 23.738281 226.03125 24.347656 228.886719 C 24.957031 231.746094 25.652344 234.582031 26.421875 237.398438 C 27.199219 240.210938 28.046875 243.007812 28.976562 245.777344 C 29.90625 248.542969 30.917969 251.28125 32.003906 253.996094 C 33.085938 256.707031 34.246094 259.386719 35.488281 262.03125 C 36.722656 264.679688 38.039062 267.28125 39.421875 269.859375 C 40.808594 272.429688 42.261719 274.957031 43.792969 277.449219 C 45.324219 279.933594 46.917969 282.378906 48.585938 284.777344 C 50.253906 287.171875 51.988281 289.523438 53.789062 291.824219 C 55.585938 294.121094 57.453125 296.367188 59.378906 298.5625 C 61.308594 300.757812 63.296875 302.894531 65.34375 304.976562 C 67.390625 307.058594 69.496094 309.078125 71.664062 311.042969 C 73.828125 313.003906 76.042969 314.902344 78.316406 316.738281 C 80.585938 318.578125 82.90625 320.347656 85.277344 322.054688 C 87.652344 323.757812 90.066406 325.394531 92.53125 326.957031 C 94.996094 328.527344 97.503906 330.023438 100.050781 331.449219 C 102.601562 332.878906 105.1875 334.226562 107.8125 335.507812 C 110.4375 336.789062 113.097656 337.988281 115.792969 339.117188 C 118.488281 340.246094 121.210938 341.296875 123.960938 342.273438 C 126.71875 343.242188 129.496094 344.136719 132.300781 344.957031 C 135.105469 345.773438 137.933594 346.507812 140.777344 347.167969 C 143.621094 347.824219 146.480469 348.398438 149.363281 348.894531 C 152.242188 349.386719 155.132812 349.796875 158.03125 350.128906 C 160.9375 350.457031 163.84375 350.707031 166.761719 350.871094 C 169.675781 351.039062 172.597656 351.117188 175.515625 351.117188 C 290.175781 352.546875 367.015625 225.046875 312.292969 124.484375 Z M 312.292969 124.484375 " fill-opacity="1" fill-rule="nonzero"/><path fill="#f9520b" d="M 175.515625 152.359375 C 180.328125 152.351562 185.011719 153.136719 189.5625 154.707031 C 189.90625 154.824219 190.257812 154.90625 190.617188 154.957031 C 190.976562 155.003906 191.335938 155.019531 191.699219 154.996094 C 192.058594 154.972656 192.417969 154.917969 192.765625 154.824219 C 193.117188 154.734375 193.457031 154.609375 193.78125 154.449219 C 194.105469 154.289062 194.414062 154.101562 194.703125 153.882812 C 194.992188 153.664062 195.257812 153.417969 195.496094 153.144531 C 195.738281 152.871094 195.949219 152.582031 196.132812 152.269531 C 196.3125 151.957031 196.460938 151.628906 196.582031 151.28125 C 199.007812 141.519531 181.8125 141.90625 175.515625 141.3125 C 102.277344 144.34375 102.28125 248.710938 175.515625 251.738281 C 177.324219 251.738281 179.128906 251.648438 180.925781 251.46875 C 182.722656 251.289062 184.511719 251.023438 186.28125 250.667969 C 188.058594 250.3125 189.808594 249.871094 191.539062 249.347656 C 193.265625 248.824219 194.96875 248.210938 196.636719 247.519531 C 198.300781 246.828125 199.9375 246.054688 201.53125 245.203125 C 203.121094 244.347656 204.671875 243.417969 206.175781 242.414062 C 207.675781 241.40625 209.128906 240.332031 210.527344 239.1875 C 211.921875 238.042969 213.261719 236.828125 214.539062 235.546875 C 215.816406 234.273438 217.027344 232.933594 218.175781 231.539062 C 219.324219 230.136719 220.398438 228.6875 221.402344 227.1875 C 222.40625 225.683594 223.335938 224.136719 224.1875 222.542969 C 225.042969 220.949219 225.816406 219.316406 226.507812 217.648438 C 227.203125 215.976562 227.8125 214.277344 228.335938 212.546875 C 228.863281 210.816406 229.300781 209.066406 229.65625 207.292969 C 230.011719 205.523438 230.277344 203.738281 230.457031 201.9375 C 230.632812 200.136719 230.726562 198.332031 230.726562 196.527344 C 230.164062 190.117188 230.539062 173.101562 220.8125 175.519531 C 220.46875 175.636719 220.140625 175.789062 219.828125 175.96875 C 219.515625 176.152344 219.222656 176.363281 218.953125 176.601562 C 218.675781 176.84375 218.433594 177.109375 218.210938 177.398438 C 217.996094 177.683594 217.808594 177.992188 217.648438 178.316406 C 217.488281 178.644531 217.363281 178.984375 217.273438 179.332031 C 217.175781 179.683594 217.121094 180.039062 217.097656 180.402344 C 217.078125 180.761719 217.09375 181.121094 217.136719 181.484375 C 217.1875 181.84375 217.273438 182.191406 217.390625 182.539062 C 218.9375 187.074219 219.703125 191.734375 219.683594 196.527344 C 217.472656 255.03125 133.5625 255.03125 131.347656 196.527344 C 131.347656 195.082031 131.421875 193.636719 131.5625 192.199219 C 131.707031 190.757812 131.921875 189.332031 132.203125 187.914062 C 132.488281 186.492188 132.835938 185.09375 133.257812 183.710938 C 133.683594 182.328125 134.167969 180.96875 134.722656 179.632812 C 135.277344 178.296875 135.890625 176.992188 136.578125 175.71875 C 137.257812 174.441406 138.003906 173.203125 138.808594 171.996094 C 139.605469 170.796875 140.472656 169.636719 141.386719 168.519531 C 142.308594 167.402344 143.277344 166.332031 144.296875 165.308594 C 145.324219 164.289062 146.390625 163.316406 147.507812 162.398438 C 148.628906 161.484375 149.789062 160.621094 150.988281 159.816406 C 152.191406 159.011719 153.425781 158.273438 154.703125 157.585938 C 155.976562 156.90625 157.289062 156.289062 158.621094 155.734375 C 159.957031 155.179688 161.316406 154.691406 162.699219 154.273438 C 164.082031 153.851562 165.480469 153.496094 166.902344 153.210938 C 168.324219 152.933594 169.746094 152.71875 171.1875 152.574219 C 172.628906 152.433594 174.066406 152.359375 175.515625 152.359375 Z M 175.515625 152.359375 " fill-opacity="1" fill-rule="nonzero"/><path fill="#f9520b" d="M 228.378906 112.246094 C 228.558594 111.929688 228.699219 111.597656 228.808594 111.253906 C 228.917969 110.90625 228.996094 110.554688 229.039062 110.191406 C 229.078125 109.832031 229.082031 109.472656 229.050781 109.113281 C 229.023438 108.753906 228.957031 108.398438 228.855469 108.046875 C 228.757812 107.699219 228.628906 107.363281 228.457031 107.042969 C 228.292969 106.71875 228.097656 106.417969 227.871094 106.132812 C 227.648438 105.847656 227.398438 105.585938 227.117188 105.359375 C 226.84375 105.121094 226.542969 104.917969 226.226562 104.742188 C 218.46875 100.441406 210.292969 97.1875 201.703125 94.960938 C 193.117188 92.742188 184.386719 91.632812 175.515625 91.621094 C 36.367188 97.378906 36.371094 295.683594 175.515625 301.429688 C 177.789062 301.433594 180.050781 301.359375 182.316406 301.210938 C 184.582031 301.066406 186.835938 300.847656 189.085938 300.554688 C 191.335938 300.261719 193.578125 299.898438 195.800781 299.457031 C 198.027344 299.023438 200.238281 298.511719 202.433594 297.933594 C 204.628906 297.347656 206.796875 296.699219 208.949219 295.976562 C 211.097656 295.253906 213.222656 294.460938 215.324219 293.601562 C 217.421875 292.742188 219.492188 291.8125 221.53125 290.824219 C 223.574219 289.828125 225.578125 288.769531 227.546875 287.644531 C 229.515625 286.519531 231.453125 285.328125 233.34375 284.078125 C 235.238281 282.828125 237.085938 281.519531 238.898438 280.148438 C 240.707031 278.777344 242.46875 277.347656 244.183594 275.863281 C 245.898438 274.382812 247.5625 272.84375 249.183594 271.246094 C 250.796875 269.65625 252.355469 268.011719 253.867188 266.316406 C 255.378906 264.621094 256.828125 262.882812 258.226562 261.09375 C 259.621094 259.304688 260.957031 257.472656 262.238281 255.597656 C 263.511719 253.722656 264.726562 251.808594 265.878906 249.851562 C 267.03125 247.898438 268.121094 245.90625 269.140625 243.882812 C 270.167969 241.859375 271.121094 239.804688 272.011719 237.710938 C 272.902344 235.628906 273.726562 233.511719 274.476562 231.371094 C 275.230469 229.234375 275.914062 227.066406 276.527344 224.886719 C 277.136719 222.703125 277.683594 220.496094 278.148438 218.277344 C 278.617188 216.058594 279.015625 213.828125 279.34375 211.578125 C 279.664062 209.332031 279.917969 207.082031 280.09375 204.816406 C 280.273438 202.558594 280.378906 200.292969 280.40625 198.023438 C 280.4375 195.753906 280.398438 193.488281 280.28125 191.21875 C 280.164062 188.953125 279.972656 186.691406 279.710938 184.441406 C 279.449219 182.1875 279.113281 179.941406 278.703125 177.710938 C 278.296875 175.476562 277.816406 173.261719 277.261719 171.0625 C 276.710938 168.863281 276.085938 166.683594 275.390625 164.523438 C 274.699219 162.363281 273.9375 160.226562 273.101562 158.113281 C 272.273438 156.003906 271.371094 153.921875 270.402344 151.871094 C 269.433594 149.816406 268.402344 147.796875 267.300781 145.8125 C 267.128906 145.496094 266.921875 145.199219 266.6875 144.917969 C 266.457031 144.644531 266.199219 144.386719 265.914062 144.164062 C 265.628906 143.933594 265.328125 143.738281 265.003906 143.574219 C 264.683594 143.402344 264.34375 143.269531 263.996094 143.167969 C 263.648438 143.066406 263.292969 143.003906 262.925781 142.972656 C 262.566406 142.941406 262.203125 142.949219 261.84375 142.988281 C 261.480469 143.027344 261.128906 143.101562 260.78125 143.210938 C 260.4375 143.324219 260.101562 143.46875 259.789062 143.644531 C 259.46875 143.824219 259.171875 144.027344 258.890625 144.261719 C 258.617188 144.496094 258.367188 144.757812 258.136719 145.042969 C 257.914062 145.328125 257.71875 145.628906 257.550781 145.953125 C 257.386719 146.277344 257.253906 146.613281 257.152344 146.960938 C 257.050781 147.3125 256.988281 147.667969 256.960938 148.027344 C 256.933594 148.394531 256.9375 148.753906 256.980469 149.113281 C 257.023438 149.476562 257.097656 149.828125 257.210938 150.171875 C 257.324219 150.523438 257.46875 150.851562 257.648438 151.167969 C 292.640625 211.863281 245.628906 291.601562 175.511719 290.386719 C 173.976562 290.382812 172.441406 290.34375 170.914062 290.269531 C 169.378906 290.191406 167.847656 290.078125 166.316406 289.921875 C 164.789062 289.773438 163.265625 289.582031 161.746094 289.359375 C 160.226562 289.128906 158.71875 288.867188 157.210938 288.5625 C 155.703125 288.261719 154.207031 287.929688 152.71875 287.554688 C 151.226562 287.179688 149.746094 286.769531 148.28125 286.324219 C 146.8125 285.871094 145.351562 285.394531 143.90625 284.871094 C 142.460938 284.351562 141.03125 283.804688 139.613281 283.210938 C 138.191406 282.621094 136.792969 282.003906 135.402344 281.34375 C 134.015625 280.6875 132.640625 279.996094 131.292969 279.273438 C 129.9375 278.546875 128.601562 277.792969 127.28125 277.003906 C 125.96875 276.210938 124.671875 275.386719 123.390625 274.539062 C 122.117188 273.683594 120.863281 272.796875 119.628906 271.882812 C 118.398438 270.96875 117.1875 270.023438 115.996094 269.046875 C 114.8125 268.074219 113.648438 267.074219 112.511719 266.042969 C 111.371094 265.007812 110.261719 263.953125 109.175781 262.863281 C 108.09375 261.777344 107.03125 260.667969 106.003906 259.527344 C 104.96875 258.394531 103.96875 257.226562 102.992188 256.042969 C 102.015625 254.859375 101.074219 253.648438 100.15625 252.414062 C 99.242188 251.179688 98.355469 249.921875 97.507812 248.648438 C 96.652344 247.371094 95.832031 246.074219 95.042969 244.757812 C 94.253906 243.441406 93.492188 242.101562 92.765625 240.753906 C 92.042969 239.398438 91.351562 238.027344 90.699219 236.636719 C 90.039062 235.253906 89.417969 233.847656 88.828125 232.429688 C 88.238281 231.011719 87.6875 229.578125 87.167969 228.132812 C 86.652344 226.6875 86.167969 225.234375 85.722656 223.761719 C 85.273438 222.292969 84.863281 220.8125 84.488281 219.324219 C 84.117188 217.832031 83.777344 216.335938 83.476562 214.832031 C 83.175781 213.324219 82.914062 211.8125 82.6875 210.292969 C 82.457031 208.773438 82.265625 207.253906 82.117188 205.722656 C 81.96875 204.199219 81.851562 202.664062 81.773438 201.132812 C 81.699219 199.597656 81.65625 198.0625 81.65625 196.527344 C 80.453125 126.414062 160.171875 79.398438 220.871094 114.398438 C 221.191406 114.578125 221.523438 114.71875 221.867188 114.828125 C 222.210938 114.941406 222.566406 115.019531 222.925781 115.058594 C 223.289062 115.097656 223.648438 115.109375 224.007812 115.078125 C 224.371094 115.046875 224.726562 114.984375 225.074219 114.882812 C 225.421875 114.78125 225.757812 114.648438 226.082031 114.484375 C 226.402344 114.3125 226.707031 114.117188 226.988281 113.894531 C 227.273438 113.667969 227.53125 113.414062 227.765625 113.136719 C 227.996094 112.863281 228.203125 112.5625 228.378906 112.246094 Z M 228.378906 112.246094 " fill-opacity="1" fill-rule="nonzero"/><path fill="#f9520b" d="M 319.949219 91.128906 L 279.757812 131.324219 C 278.683594 132.378906 277.390625 132.914062 275.890625 132.921875 L 275.449219 132.921875 L 249.003906 130.882812 L 179.4375 200.449219 C 179.175781 200.691406 178.898438 200.917969 178.59375 201.109375 C 178.292969 201.304688 177.972656 201.46875 177.636719 201.597656 C 177.308594 201.726562 176.960938 201.828125 176.605469 201.894531 C 176.257812 201.957031 175.902344 201.988281 175.542969 201.984375 C 175.183594 201.976562 174.828125 201.941406 174.476562 201.867188 C 174.121094 201.792969 173.78125 201.6875 173.453125 201.546875 C 173.121094 201.414062 172.808594 201.242188 172.511719 201.042969 C 172.210938 200.84375 171.9375 200.613281 171.683594 200.359375 C 171.425781 200.109375 171.203125 199.828125 171.003906 199.53125 C 170.800781 199.234375 170.632812 198.917969 170.492188 198.585938 C 170.351562 198.257812 170.246094 197.917969 170.171875 197.566406 C 170.101562 197.210938 170.0625 196.859375 170.058594 196.503906 C 170.050781 196.144531 170.085938 195.789062 170.152344 195.433594 C 170.21875 195.082031 170.3125 194.738281 170.449219 194.402344 C 170.578125 194.066406 170.742188 193.753906 170.933594 193.449219 C 171.128906 193.148438 171.347656 192.867188 171.597656 192.609375 L 241.164062 123.042969 L 239.117188 96.59375 C 239.066406 95.792969 239.175781 95.019531 239.457031 94.269531 C 239.738281 93.519531 240.15625 92.859375 240.722656 92.289062 L 280.914062 52.09375 C 281.292969 51.726562 281.710938 51.417969 282.175781 51.171875 C 282.640625 50.921875 283.128906 50.742188 283.640625 50.632812 C 284.15625 50.523438 284.675781 50.488281 285.203125 50.527344 C 285.726562 50.5625 286.238281 50.671875 286.730469 50.851562 C 287.226562 51.039062 287.683594 51.28125 288.105469 51.597656 C 288.53125 51.90625 288.902344 52.273438 289.226562 52.6875 C 289.546875 53.109375 289.800781 53.5625 289.992188 54.054688 C 290.1875 54.542969 290.308594 55.046875 290.355469 55.574219 L 292.175781 79.863281 L 316.472656 81.6875 C 316.992188 81.738281 317.503906 81.859375 317.992188 82.046875 C 318.480469 82.242188 318.9375 82.496094 319.351562 82.816406 C 319.773438 83.136719 320.132812 83.511719 320.449219 83.933594 C 320.757812 84.359375 321.007812 84.816406 321.1875 85.3125 C 321.367188 85.804688 321.476562 86.3125 321.515625 86.835938 C 321.550781 87.363281 321.515625 87.882812 321.40625 88.398438 C 321.296875 88.914062 321.121094 89.402344 320.871094 89.867188 C 320.621094 90.332031 320.316406 90.753906 319.949219 91.128906 Z M 319.949219 91.128906 " fill-opacity="1" fill-rule="nonzero"/></svg>