<svg xmlns="http://www.w3.org/2000/svg" xmlns:xlink="http://www.w3.org/1999/xlink" width="500" zoomAndPan="magnify" viewBox="0 0 375 374.999991" height="500" preserveAspectRatio="xMidYMid meet" version="1.0"><defs><clipPath id="93e6b2fc84"><path d="M 47.683594 92 L 334.484375 92 L 334.484375 340.625 L 47.683594 340.625 Z M 47.683594 92 " clip-rule="nonzero"/></clipPath><clipPath id="8e8f548336"><path d="M 156 5 L 211 5 L 211 82.324219 L 156 82.324219 Z M 156 5 " clip-rule="nonzero"/></clipPath></defs><g clip-path="url(#93e6b2fc84)"><path fill="#f9520b" d="M 244.414062 155.90625 L 244.414062 328.246094 L 59.992188 328.246094 L 59.992188 252.949219 L 217.277344 195.238281 L 217.277344 165.851562 Z M 201.757812 92.652344 C 192.515625 92.652344 185.34375 97.757812 185.050781 104.097656 L 181.113281 195.550781 L 47.820312 244.453125 L 47.820312 340.414062 L 334.3125 340.414062 L 334.3125 189.054688 L 256.546875 138.5 L 220.488281 151.722656 L 218.445312 104.09375 C 218.183594 97.757812 211.007812 92.652344 201.757812 92.652344 Z M 201.757812 92.652344 " fill-opacity="1" fill-rule="evenodd"/></g><path fill="#f9520b" d="M 145.527344 131.804688 C 137.074219 131.804688 130.515625 136.46875 130.273438 142.265625 L 127.460938 207.296875 L 163.023438 194.230469 L 160.78125 142.265625 C 160.515625 136.46875 153.976562 131.804688 145.527344 131.804688 Z M 145.527344 131.804688 " fill-opacity="1" fill-rule="evenodd"/><path fill="#f9520b" d="M 94.992188 166.976562 C 87.992188 166.976562 82.574219 170.851562 82.382812 175.621094 L 80.265625 224.601562 L 109.25 213.964844 L 107.601562 175.621094 C 107.382812 170.851562 101.96875 166.976562 94.992188 166.976562 Z M 94.992188 166.976562 " fill-opacity="1" fill-rule="evenodd"/><g clip-path="url(#8e8f548336)"><path fill="#f9520b" d="M 201.191406 82.1875 C 201.191406 82.1875 200.046875 66.171875 175.433594 59.566406 C 144.382812 51.242188 160.101562 5 160.101562 5 C 160.101562 5 164.140625 36.105469 192.691406 43.742188 C 216.15625 50.03125 214.765625 74.34375 201.191406 82.1875 Z M 201.191406 82.1875 " fill-opacity="1" fill-rule="nonzero"/></g><path fill="#f9520b" d="M 145.527344 125.730469 C 145.527344 125.730469 144.710938 114.589844 127.632812 110.019531 C 106.042969 104.230469 116.957031 72.085938 116.957031 72.085938 C 116.957031 72.085938 119.773438 93.707031 139.605469 99.011719 C 155.910156 103.390625 154.960938 120.273438 145.527344 125.730469 Z M 145.527344 125.730469 " fill-opacity="1" fill-rule="nonzero"/><path fill="#f9520b" d="M 215.140625 227.792969 L 215.140625 289.289062 L 176.1875 292.570312 L 176.1875 239.789062 Z M 215.140625 227.792969 " fill-opacity="1" fill-rule="evenodd"/><path fill="#f9520b" d="M 153.84375 246.679688 L 153.84375 294.460938 L 118.082031 297.476562 L 118.082031 257.707031 Z M 153.84375 246.679688 " fill-opacity="1" fill-rule="evenodd"/><path fill="#f9520b" d="M 103.398438 262.242188 L 103.398438 298.710938 L 71.375 301.417969 L 71.375 272.097656 Z M 103.398438 262.242188 " fill-opacity="1" fill-rule="evenodd"/></svg>